<?xml version="1.0" standalone="no"?>
<!DOCTYPE svg PUBLIC "-//W3C//DTD SVG 20010904//EN"
 "http://www.w3.org/TR/2001/REC-SVG-20010904/DTD/svg10.dtd">
<svg version="1.0" xmlns="http://www.w3.org/2000/svg"
 width="227.000000pt" height="227.000000pt" viewBox="0 0 227.000000 227.000000"
 preserveAspectRatio="xMidYMid meet">
<metadata>
Created by potrace 1.14, written by Peter Selinger 2001-2017
</metadata>
<g transform="translate(0.000000,227.000000) scale(0.100000,-0.100000)"
fill="#000000" stroke="none">
<path d="M603 2129 c-5 -5 -30 -9 -56 -10 -26 -1 -50 -6 -53 -11 -3 -4 -16 -8
-30 -8 -13 0 -24 -3 -24 -8 0 -11 -116 -73 -124 -65 -3 4 -13 -3 -22 -15 -8
-12 -20 -19 -26 -16 -7 4 -8 2 -4 -5 4 -6 0 -14 -9 -17 -9 -4 -14 -12 -11 -20
8 -21 -19 -37 -34 -19 -13 16 -30 11 -29 -8 0 -9 2 -8 6 1 2 6 9 10 14 6 14
-8 11 -41 -5 -56 -7 -8 -17 -24 -20 -36 -4 -13 -12 -19 -18 -16 -6 4 -8 3 -5
-3 8 -12 -12 -83 -30 -104 -7 -9 -11 -18 -7 -21 5 -6 18 -163 16 -210 -1 -16
2 -28 6 -28 4 0 13 -21 20 -47 10 -37 10 -48 0 -56 -10 -6 -9 -7 4 -4 18 6 32
-18 21 -35 -4 -7 -1 -8 6 -3 9 5 12 1 11 -11 -4 -31 0 -48 7 -40 9 8 44 -64
37 -75 -3 -5 1 -9 9 -9 12 0 38 -39 43 -65 1 -5 3 -14 4 -20 1 -5 2 -13 1 -17
0 -4 5 -5 12 -2 9 3 20 -10 30 -36 9 -23 20 -39 25 -36 6 3 17 -5 26 -19 19
-29 20 -39 4 -29 -7 4 -8 3 -4 -5 4 -6 11 -9 16 -6 5 3 17 -7 27 -22 10 -15
28 -38 40 -51 13 -14 20 -29 16 -35 -3 -5 -1 -7 4 -4 6 4 18 -4 27 -17 12 -20
13 -26 2 -35 -7 -6 -15 -9 -18 -6 -2 3 -5 -2 -5 -10 0 -19 13 -19 21 0 10 27
34 16 53 -25 10 -22 24 -40 31 -40 6 0 12 -4 12 -10 0 -5 9 -19 20 -30 11 -11
20 -27 20 -36 0 -8 4 -13 9 -10 5 3 14 -1 21 -9 7 -8 9 -15 4 -15 -5 0 2 -7
14 -16 12 -8 22 -21 22 -28 0 -8 8 -20 17 -27 11 -10 14 -10 9 -1 -4 6 -5 12
-2 12 7 0 40 -73 37 -83 -1 -5 3 -6 9 -2 6 3 8 12 4 18 -3 7 4 1 15 -13 19
-24 25 -36 22 -52 0 -4 5 -5 12 -2 11 4 77 -56 77 -71 0 -3 21 -26 47 -51 27
-25 47 -50 45 -56 -1 -5 2 -7 7 -4 5 3 21 -8 36 -26 27 -32 32 -34 95 -43 27
-4 31 -2 17 6 -9 5 -23 7 -30 3 -6 -4 37 44 98 107 60 63 141 147 180 188 38
41 85 90 103 109 17 19 32 37 32 41 0 4 10 16 23 27 12 11 33 33 45 49 13 17
21 23 17 15 -3 -8 0 -7 7 4 7 10 28 32 45 49 18 16 30 34 27 39 -8 12 31 49
41 40 4 -4 6 0 3 8 -5 16 90 153 126 182 12 10 17 18 11 18 -7 0 -7 3 0 8 6 4
18 21 27 37 10 17 24 29 33 29 12 -2 13 1 5 11 -8 9 -7 14 3 18 8 3 17 19 20
37 5 20 11 29 18 24 8 -4 9 -3 5 4 -8 14 18 55 28 45 4 -4 4 1 0 11 -4 11 -3
17 2 14 5 -4 10 5 11 20 0 14 8 29 17 34 9 5 16 20 16 33 0 14 5 25 11 25 6 0
9 9 6 20 -3 12 -1 35 5 53 5 18 9 47 9 66 -1 18 3 49 10 68 8 26 8 38 0 46 -6
6 -11 23 -11 38 0 39 -38 157 -67 206 -13 23 -22 47 -18 53 3 5 -5 14 -19 20
-14 5 -26 14 -26 19 0 5 -20 24 -45 42 -25 18 -44 38 -41 44 2 6 -4 11 -13 12
-28 2 -91 21 -104 30 -17 13 -154 16 -204 5 -24 -6 -40 -6 -37 -1 3 5 0 9 -5
9 -6 0 -11 -3 -11 -7 0 -5 -47 -30 -105 -58 -57 -27 -104 -55 -105 -62 0 -6
-13 -17 -29 -24 -16 -7 -27 -17 -25 -21 3 -4 -1 -8 -9 -8 -8 0 -17 -9 -20 -20
-3 -11 -12 -20 -20 -20 -9 0 -19 -9 -22 -20 -3 -11 -11 -20 -16 -20 -5 0 -9
-7 -9 -15 0 -9 -7 -18 -15 -21 -8 -4 -12 -10 -9 -15 3 -5 -1 -6 -9 -3 -21 8
-41 50 -33 70 5 14 4 15 -8 5 -11 -9 -15 -8 -21 6 -5 10 -7 23 -6 28 2 6 -1 7
-5 2 -12 -12 -53 33 -47 52 3 10 2 12 -4 5 -5 -8 -20 -1 -48 24 -22 19 -32 32
-22 29 11 -4 16 -3 12 4 -4 6 -13 8 -21 5 -7 -3 -20 1 -28 9 -8 8 -20 15 -26
15 -6 0 -8 5 -5 10 3 6 -2 10 -12 10 -10 0 -33 9 -51 20 -18 11 -37 18 -43 15
-5 -4 -9 -1 -9 5 0 6 -3 9 -7 7 -7 -4 -69 4 -119 16 -12 3 -26 1 -31 -4z m32
-139 c6 -9 -32 -23 -51 -19 -5 1 -16 0 -24 -4 -8 -3 -32 -11 -52 -17 -20 -6
-53 -22 -72 -35 -20 -13 -37 -21 -40 -17 -7 11 40 52 64 57 12 2 28 9 34 14
27 22 131 38 141 21z m52 -6 c-3 -3 -12 -4 -19 -1 -8 3 -5 6 6 6 11 1 17 -2
13 -5z m1056 -23 c8 -6 17 -8 20 -5 3 4 14 -2 24 -12 17 -17 17 -18 0 -11 -10
4 -44 10 -75 13 -32 3 -68 8 -82 11 l-25 6 25 7 c34 10 97 5 113 -9z m-23
-1184 c0 -2 -10 -12 -22 -23 l-23 -19 19 23 c18 21 26 27 26 19z"/>
<path d="M1400 2101 c0 -6 4 -12 8 -15 5 -3 9 1 9 9 0 8 -4 15 -9 15 -4 0 -8
-4 -8 -9z"/>
<path d="M1919 2053 c-13 -16 -12 -17 4 -4 9 7 17 15 17 17 0 8 -8 3 -21 -13z"/>
<path d="M2025 2030 c3 -5 8 -10 11 -10 2 0 4 5 4 10 0 6 -5 10 -11 10 -5 0
-7 -4 -4 -10z"/>
<path d="M1986 2011 c-4 -5 -2 -12 3 -15 5 -4 12 -2 15 3 4 5 2 12 -3 15 -5 4
-12 2 -15 -3z"/>
<path d="M2050 1975 c0 -8 2 -15 4 -15 2 0 6 7 10 15 3 8 1 15 -4 15 -6 0 -10
-7 -10 -15z"/>
<path d="M1124 1880 c0 -13 4 -16 10 -10 7 7 7 13 0 20 -6 6 -10 3 -10 -10z"/>
<path d="M2175 1650 c-3 -5 -1 -10 4 -10 6 0 11 5 11 10 0 6 -2 10 -4 10 -3 0
-8 -4 -11 -10z"/>
<path d="M2000 1170 c0 -6 7 -10 15 -10 8 0 15 2 15 4 0 2 -7 6 -15 10 -8 3
-15 1 -15 -4z"/>
<path d="M259 1147 c6 -8 8 -17 4 -20 -3 -4 -1 -7 5 -7 14 0 14 2 6 24 -3 9
-11 16 -16 16 -7 0 -6 -5 1 -13z"/>
<path d="M2052 1140 c0 -14 2 -19 5 -12 2 6 2 18 0 25 -3 6 -5 1 -5 -13z"/>
<path d="M340 941 c0 -5 5 -13 10 -16 6 -3 10 -2 10 4 0 5 -4 13 -10 16 -5 3
-10 2 -10 -4z"/>
<path d="M380 931 c0 -6 4 -13 10 -16 6 -3 7 1 4 9 -7 18 -14 21 -14 7z"/>
<path d="M1836 931 c-3 -5 1 -11 9 -14 9 -4 12 -1 8 9 -6 16 -10 17 -17 5z"/>
<path d="M1806 883 c-6 -14 -5 -15 5 -6 7 7 10 15 7 18 -3 3 -9 -2 -12 -12z"/>
<path d="M424 869 c-3 -6 -2 -15 3 -20 5 -5 9 -1 9 11 0 23 -2 24 -12 9z"/>
<path d="M753 451 c0 -11 5 -18 9 -15 4 3 5 11 1 19 -7 21 -12 19 -10 -4z"/>
<path d="M1441 404 c0 -11 3 -14 6 -6 3 7 2 16 -1 19 -3 4 -6 -2 -5 -13z"/>
<path d="M770 399 c0 -5 5 -7 10 -4 6 3 10 8 10 11 0 2 -4 4 -10 4 -5 0 -10
-5 -10 -11z"/>
<path d="M836 362 c-3 -5 1 -9 9 -9 8 0 12 4 9 9 -3 4 -7 8 -9 8 -2 0 -6 -4
-9 -8z"/>
<path d="M1378 353 c7 -3 16 -2 19 1 4 3 -2 6 -13 5 -11 0 -14 -3 -6 -6z"/>
<path d="M1310 310 c-8 -5 -12 -12 -9 -15 4 -3 12 1 19 10 14 17 11 19 -10 5z"/>
<path d="M900 306 c0 -2 8 -10 18 -17 15 -13 16 -12 3 4 -13 16 -21 21 -21 13z"/>
<path d="M1263 268 c-15 -20 -25 -38 -20 -38 3 0 12 11 21 25 17 26 16 35 -1
13z"/>
<path d="M1281 256 c-9 -10 -8 -15 2 -19 8 -3 13 3 13 14 0 23 0 23 -15 5z"/>
<path d="M930 230 c0 -5 5 -10 11 -10 5 0 7 5 4 10 -3 6 -8 10 -11 10 -2 0 -4
-4 -4 -10z"/>
<path d="M1280 211 c0 -5 5 -13 10 -16 6 -3 10 -2 10 4 0 5 -4 13 -10 16 -5 3
-10 2 -10 -4z"/>
<path d="M1184 189 c-16 -18 -16 -19 -1 -13 9 3 17 10 17 15 0 5 5 9 11 9 5 0
7 -4 4 -10 -9 -14 1 -12 13 3 19 22 -24 18 -44 -4z"/>
</g>
</svg>
